<svg width="57" height="54" viewBox="0 0 57 54" fill="none" xmlns="http://www.w3.org/2000/svg">
<path fill-rule="evenodd" clip-rule="evenodd" d="M29.0083 44.1237C27.6798 44.1084 26.8552 43.7562 26.0765 43.3275C24.5648 42.516 23.0683 41.6893 21.5719 40.8625C19.0778 39.4947 16.5889 38.1219 14.105 36.7439C13.4484 36.3917 12.7918 36.0396 12.181 35.6262C11.784 35.3659 11.4175 35.0138 11.1121 34.6463C10.5319 33.942 10.4861 33.0999 10.822 32.2884C11.2954 31.1554 11.8603 30.0531 12.4253 28.966C13.2652 27.3124 14.1355 25.6895 15.0059 24.0512C16.029 22.0915 17.0673 20.1317 18.1057 18.1566C19.144 16.1815 20.1823 14.1758 21.236 12.1854C22.1216 10.4706 23.0378 8.75578 23.9387 7.04097C24.6564 5.67832 25.3588 4.28503 26.0917 2.92238C26.5193 2.1109 26.9163 1.2535 27.5882 0.595137C28.1226 0.0592597 28.7181 -0.0785373 29.2984 0.2583C29.6038 0.442029 29.9092 0.702312 30.0924 0.993217C30.5658 1.72813 31.0086 2.47836 31.4209 3.2439C32.0317 4.36159 32.6119 5.5099 33.2075 6.64289C34.1084 8.37301 35.0093 10.1031 35.9102 11.8332C36.6126 13.1806 37.3303 14.5126 38.0327 15.86C38.6537 17.0542 39.2797 18.2485 39.9109 19.4427C40.5522 20.6829 41.2088 21.9077 41.8501 23.1479C42.4762 24.3268 43.087 25.5211 43.713 26.7C44.5071 28.2311 45.3164 29.7315 46.0799 31.2779C46.3089 31.7066 46.4616 32.1813 46.599 32.6559C46.8739 33.7123 46.5074 34.6004 45.6981 35.2128C44.9652 35.764 44.1864 36.208 43.4076 36.652C42.0334 37.4329 40.6438 38.1831 39.2695 38.9333C37.8189 39.7295 36.3683 40.5103 34.9177 41.3065C33.5892 42.0414 32.2607 42.7763 30.917 43.4806C30.184 43.8787 29.4206 44.1237 29.0083 44.1237ZM22.1369 30.4971C22.7171 30.8186 23.2668 31.1401 23.8166 31.431C25.313 32.2578 26.8094 33.0693 28.3059 33.8961C28.5502 34.0339 28.764 34.0339 29.0083 33.9114C30.3673 33.1612 31.7263 32.4109 33.1006 31.6607C33.7826 31.283 34.4697 30.9003 35.162 30.5124C34.7497 29.4713 28.825 18.3097 28.596 18.1872C26.4429 22.2752 24.2899 26.3785 22.1369 30.4971Z" fill="#086C81"/>
<path d="M52.0378 53.5626C51.0941 53.5017 50.1352 53.4713 49.2067 53.3648C47.9586 53.243 47.0301 52.543 46.4213 51.4624C45.4624 49.8188 44.5796 48.1296 43.712 46.4403C43.4989 46.0142 43.3924 45.512 43.3467 45.0402C43.2402 43.9901 43.7881 43.2596 44.5948 42.7422C45.4167 42.2096 46.2691 41.7378 47.1215 41.266C47.5933 41.0225 48.0804 40.7942 48.5979 40.6268C49.7547 40.2311 50.6831 40.5051 51.4137 41.5095C51.9465 42.24 52.3879 43.0466 52.814 43.8379C53.4077 44.9032 53.9708 45.9838 54.534 47.0795C55.1428 48.2513 55.7517 49.4384 56.33 50.6406C56.467 50.9298 56.5279 51.295 56.5431 51.6146C56.604 52.4669 56.0865 53.1213 55.2037 53.3039C54.7014 53.4104 54.1687 53.4561 53.6512 53.4865C53.1185 53.5169 52.5705 53.5017 52.0378 53.5017C52.0378 53.522 52.0378 53.5423 52.0378 53.5626Z" fill="#086C81"/>
<path d="M5.11471 53.5626C4.34988 53.5169 3.35559 53.4865 2.3919 53.3647C1.73414 53.2734 1.13756 52.9689 0.92341 52.2535C0.831629 51.9186 0.846926 51.5381 0.908113 51.188C1.04578 50.366 1.48939 49.6658 1.87181 48.9351C2.65194 47.4281 3.44737 45.9211 4.2581 44.4294C4.76289 43.5008 5.26768 42.5571 5.86425 41.6742C6.65968 40.4716 7.88342 40.1367 9.15305 40.7608C10.3921 41.385 11.6158 42.0243 12.7784 42.7702C13.9562 43.5313 14.3998 44.6425 13.8185 46.0125C13.2985 47.2454 12.656 48.4175 12.0288 49.6049C11.6311 50.3507 11.2181 51.0662 10.7592 51.7664C10.0861 52.7863 9.10716 53.3343 7.92931 53.4256C7.0574 53.5017 6.20078 53.5169 5.11471 53.5626Z" fill="#086C81"/>
</svg>
