<svg width="1333" height="512" viewBox="0 0 1333 512" fill="none" xmlns="http://www.w3.org/2000/svg">
<path fill-rule="evenodd" clip-rule="evenodd" d="M207.626 324.914C197.827 324.801 191.745 322.203 186.002 319.041C174.852 313.055 163.814 306.957 152.777 300.859C134.381 290.769 116.024 280.643 97.7032 270.478C92.8603 267.88 88.0174 265.283 83.5124 262.234C80.5842 260.314 77.881 257.717 75.6285 255.006C71.3491 249.811 71.0113 243.599 73.4888 237.613C76.9804 229.256 81.147 221.125 85.3142 213.106C91.5091 200.909 97.9282 188.938 104.348 176.853C111.894 162.398 119.552 147.941 127.211 133.372C134.869 118.804 142.528 104.009 150.299 89.327C156.831 76.6781 163.589 64.029 170.234 51.38C175.527 41.3287 180.708 31.0513 186.114 21C189.268 15.0142 192.196 8.68975 197.151 3.83346C201.093 -0.119347 205.485 -1.13578 209.765 1.34884C212.018 2.70408 214.27 4.62401 215.622 6.76982C219.113 12.1908 222.379 17.7247 225.42 23.3716C229.925 31.616 234.205 40.0863 238.598 48.4436C245.243 61.2056 251.887 73.9673 258.532 86.729C263.713 96.6679 269.006 106.493 274.187 116.432C278.767 125.241 283.385 134.05 288.04 142.859C292.77 152.007 297.613 161.042 302.343 170.19C306.961 178.886 311.466 187.695 316.083 196.391C321.94 207.685 327.91 218.753 333.541 230.159C335.23 233.322 336.356 236.823 337.37 240.324C339.397 248.116 336.694 254.667 330.725 259.185C325.319 263.25 319.575 266.525 313.831 269.801C303.695 275.561 293.446 281.094 283.309 286.628C272.61 292.501 261.911 298.261 251.212 304.134C241.413 309.554 231.614 314.975 221.704 320.17C216.297 323.107 210.667 324.914 207.626 324.914ZM156.944 224.4C161.224 226.771 165.278 229.143 169.333 231.289C180.37 237.387 191.407 243.373 202.445 249.472C204.247 250.489 205.824 250.489 207.626 249.585C217.649 244.051 227.673 238.517 237.809 232.983C242.84 230.197 247.907 227.374 253.014 224.513C249.973 216.833 206.274 134.502 204.585 133.598C188.704 163.753 172.824 194.02 156.944 224.4Z" fill="#086C81"/>
<path fill-rule="evenodd" clip-rule="evenodd" d="M908.656 303.007C908.656 336.246 908.81 369.484 908.656 402.723C908.508 419.864 905.831 436.706 899.119 452.655C888.099 479.186 869.468 497.221 842.798 505.568C811.06 515.406 779.322 513.915 748.477 501.395C725.085 491.855 708.099 474.864 698.86 450.27C696.923 445.053 695.284 439.539 694.39 434.172C693.347 428.062 697.37 422.993 703.181 422.844C707.801 422.695 712.569 422.695 717.188 422.695C729.109 422.695 741.028 422.844 752.799 422.695C758.759 422.695 763.376 424.633 766.806 429.85C774.853 441.923 786.624 445.053 799.886 444.755C809.865 444.606 818.959 441.923 825.811 434.172C831.919 427.316 834.456 418.82 835.348 409.877C835.946 403.915 835.643 397.804 835.798 391.693C835.798 390.351 835.643 389.159 835.348 387.966C834.456 382.899 831.476 381.557 827.449 384.538C822.832 387.817 818.657 391.842 813.892 394.823C799.886 403.766 784.39 406.598 768.296 405.256C735.363 402.574 711.675 384.688 698.264 354.281C680.086 313.441 680.086 271.558 698.264 230.419C707.95 208.806 723.893 192.858 745.947 184.958C770.236 176.463 794.074 177.804 816.275 192.262C819.852 194.647 823.127 197.777 826.556 200.459C831.624 204.335 834.751 202.844 835.643 196.436C835.798 194.647 835.946 192.858 836.241 191.069C836.986 186.747 840.415 183.319 844.738 182.871C846.825 182.573 849.06 182.573 851.14 182.573C866.341 182.573 881.542 182.573 896.736 182.573C898.374 182.573 900.019 182.871 901.656 183.17C905.381 183.915 907.616 186.449 908.213 190.324C908.81 193.305 908.81 196.585 908.81 199.714C908.906 234.095 908.958 268.527 908.958 303.007C908.855 303.007 908.759 303.007 908.656 303.007ZM835.798 290.04C835.798 285.121 834.898 278.265 832.368 271.707C826.704 256.652 816.275 247.56 800.483 246.367C784.839 245.175 772.168 251.883 765.168 266.787C756.974 284.077 757.121 301.964 766.356 318.956C779.027 342.208 810.168 344.444 826.261 323.576C833.261 314.484 835.798 303.603 835.798 290.04Z" fill="#086C81"/>
<path d="M440.635 291.828C440.635 259.782 440.487 227.587 440.635 195.392C440.635 192.709 441.529 189.877 442.423 187.194C443.466 183.915 446.298 182.424 449.576 182.126C451.661 181.828 453.748 181.828 455.834 181.828C471.132 181.828 486.429 181.828 501.727 181.828C503.217 181.828 504.657 181.927 506.048 182.126C509.922 182.871 512.903 185.853 513.499 189.877C513.946 192.411 514.095 194.945 514.393 197.628C515.138 203.441 518.415 205.08 523.184 201.652C525.717 199.863 527.803 197.926 530.187 195.988C546.428 183.467 564.756 178.698 584.871 180.189C602.156 181.53 617.653 187.492 630.467 200.161C642.536 212.085 649.39 226.991 653.116 243.536C656.543 258.739 656.543 274.091 656.543 289.444C656.543 321.539 656.543 353.685 656.543 385.879C656.543 388.562 656.394 391.246 656.096 393.929C655.351 398.549 652.967 400.934 648.496 401.828C646.709 402.127 644.871 402.276 642.983 402.276C627.686 402.276 612.437 402.276 597.239 402.276C596.543 402.276 595.898 402.276 595.302 402.276C586.958 401.828 584.126 398.847 583.679 390.202C583.679 388.264 583.679 386.178 583.679 384.24C583.679 351.051 583.63 317.813 583.53 284.524C583.53 276.625 582.338 269.023 578.912 261.869C572.504 248.305 558.945 241.449 543.598 243.685C527.058 246.218 516.032 258.888 514.393 276.923C514.095 280.799 513.946 284.673 513.946 288.549C513.946 322.383 513.946 356.07 513.797 389.755C513.895 391.047 513.846 392.338 513.648 393.631C512.754 398.698 510.369 401.232 505.453 401.828C502.919 402.276 500.386 402.276 498.002 402.276C484.294 402.374 470.536 402.374 456.728 402.276C454.046 402.276 451.214 402.127 448.533 401.679C444.807 401.083 442.423 398.698 441.678 394.823C441.082 391.544 440.635 388.264 440.635 384.986C440.487 353.983 440.487 322.98 440.487 291.977C440.586 291.878 440.635 291.828 440.635 291.828Z" fill="#086C81"/>
<path fill-rule="evenodd" clip-rule="evenodd" d="M1047.83 404.958C1023.84 404.809 1001.49 398.997 981.668 384.538C957.977 366.95 945.018 342.506 940.696 312.994C937.863 293.766 938.313 274.538 943.823 255.758C953.507 222.222 973.923 198.82 1005.66 186.897C1036.8 175.27 1068.1 176.016 1098.34 189.877C1127.1 203.143 1145.28 226.246 1153.47 257.547C1159.88 281.842 1159.73 306.436 1152.28 330.582C1142.6 362.628 1122.33 384.538 1092.23 396.761C1077.93 402.574 1063.18 404.809 1047.83 404.958ZM1083.89 291.977C1083.89 282.885 1082.69 273.942 1078.53 265.595C1072.26 253.075 1062.43 246.069 1048.57 246.069C1034.71 246.069 1024.43 252.777 1018.77 265.595C1010.88 283.183 1011.02 301.367 1018.77 318.807C1029.5 342.655 1060.79 344.891 1075.4 323.427C1081.95 314.037 1083.89 303.305 1083.89 291.977Z" fill="#086C81"/>
<path d="M1188.2 291.828C1188.2 259.533 1188.2 227.239 1188.2 194.945C1188.29 193.355 1188.44 191.765 1188.64 190.175C1189.53 185.405 1192.07 182.722 1196.68 182.126C1198.77 181.828 1201.01 181.828 1203.09 181.828C1218.29 181.828 1233.49 181.878 1248.69 181.977C1250.28 181.977 1251.82 182.077 1253.31 182.275C1257.33 183.02 1259.86 185.405 1260.46 189.579C1260.9 192.112 1260.9 194.647 1261.05 197.33C1261.21 199.863 1261.21 202.397 1261.5 204.931C1262.39 210.893 1265.52 212.086 1270.15 208.508C1271.78 207.167 1273.42 205.528 1274.91 204.037C1285.94 193.156 1298.45 185.256 1313.51 181.828C1314.6 181.53 1315.69 181.331 1316.78 181.232C1326.17 179.891 1327.81 184.511 1328.85 191.367C1329.15 193.156 1329 195.243 1329 197.032C1329 214.023 1329 230.866 1328.85 247.709C1328.85 249.945 1328.41 252.33 1327.96 254.565C1327.07 258.44 1324.38 260.826 1320.66 261.124C1316.33 261.571 1312.17 261.422 1307.84 261.72C1301.58 262.316 1295.18 262.614 1289.07 263.956C1272.53 267.831 1263.14 279.457 1261.65 296.896C1261.25 301.467 1261.05 306.037 1261.05 310.609C1261.05 336.842 1261.05 362.926 1261.05 389.159C1261.05 390.351 1261.05 391.544 1260.76 392.885C1260.01 398.847 1257.48 401.53 1251.67 401.978C1248.09 402.276 1244.52 402.425 1240.94 402.425C1227.82 402.425 1214.56 402.425 1201.46 402.276C1191.32 402.276 1188.34 399.145 1188.34 388.562C1188.2 356.219 1188.2 324.023 1188.2 291.828Z" fill="#086C81"/>
<path d="M377.485 394.539C370.524 394.089 363.452 393.865 356.603 393.08C347.398 392.181 340.549 387.018 336.059 379.047C328.986 366.923 322.475 354.463 316.076 342.002C314.504 338.859 313.719 335.155 313.382 331.675C312.596 323.929 316.637 318.54 322.587 314.724C328.649 310.795 334.936 307.315 341.223 303.835C344.703 302.039 348.296 300.355 352.113 299.12C360.645 296.201 367.493 298.222 372.881 305.631C376.811 311.019 380.067 316.969 383.21 322.806C387.589 330.664 391.742 338.635 395.896 346.717C400.386 355.361 404.877 364.117 409.143 372.985C410.153 375.118 410.602 377.812 410.714 380.17C411.164 386.456 407.347 391.283 400.835 392.63C397.131 393.416 393.202 393.753 389.385 393.977C385.456 394.201 381.414 394.089 377.485 394.089C377.485 394.239 377.485 394.389 377.485 394.539Z" fill="#086C81"/>
<path d="M31.3933 394.539C25.7522 394.201 18.4186 393.977 11.3107 393.079C6.45922 392.405 2.05902 390.159 0.479506 384.882C-0.197444 382.412 -0.0846179 379.605 0.36668 377.023C1.38207 370.959 4.65401 365.795 7.47463 360.405C13.2286 349.289 19.0955 338.172 25.0752 327.169C28.7984 320.319 32.5216 313.358 36.9217 306.846C42.7886 297.975 51.8146 295.505 61.179 300.108C70.3179 304.713 79.3435 309.428 87.9185 314.93C96.6056 320.544 99.8775 328.741 95.59 338.847C91.7546 347.941 87.0157 356.587 82.3897 365.345C79.4564 370.847 76.4102 376.124 73.0255 381.289C68.0609 388.812 60.8405 392.855 52.153 393.528C45.7221 394.089 39.4039 394.201 31.3933 394.539Z" fill="#086C81"/>
<g filter="url(#filter0_d_1_6)">
<path d="M939 145.455C936.791 145.455 935 143.664 935 141.455V4C935 1.79086 936.791 0 939 0H944.281C946.49 0 948.281 1.79086 948.281 4V62.6904C948.281 64.8995 950.072 66.6903 952.281 66.6903H1026.81C1029.02 66.6903 1030.81 64.8995 1030.81 62.6903V3.99999C1030.81 1.79085 1032.6 0 1034.81 0H1040.09C1042.3 0 1044.09 1.79086 1044.09 4V141.455C1044.09 143.664 1042.3 145.455 1040.09 145.455H1034.81C1032.6 145.455 1030.81 143.664 1030.81 141.455V82.6222C1030.81 80.413 1029.02 78.6222 1026.81 78.6222H952.281C950.072 78.6222 948.281 80.413 948.281 82.6222V141.455C948.281 143.664 946.49 145.455 944.281 145.455H939Z" fill="#086C81"/>
<path d="M1179.6 4C1179.6 1.79086 1181.39 0 1183.6 0H1188.88C1191.09 0 1192.88 1.79086 1192.88 4V96.3068C1192.88 106.203 1190.56 115.057 1185.92 122.869C1181.28 130.634 1174.82 136.766 1166.53 141.264C1158.3 145.715 1148.71 147.94 1137.77 147.94C1126.88 147.94 1117.29 145.691 1109.01 141.193C1100.72 136.695 1094.26 130.563 1089.62 122.798C1084.98 115.033 1082.66 106.203 1082.66 96.3068V4C1082.66 1.79086 1084.45 0 1086.66 0H1091.94C1094.15 0 1095.94 1.79086 1095.94 4V95.3835C1095.94 103.101 1097.67 109.991 1101.12 116.051C1104.58 122.064 1109.43 126.799 1115.68 130.256C1121.98 133.712 1129.34 135.44 1137.77 135.44C1146.2 135.44 1153.56 133.712 1159.86 130.256C1166.16 126.799 1171.01 122.064 1174.42 116.051C1177.87 109.991 1179.6 103.101 1179.6 95.3835V4Z" fill="#086C81"/>
<path d="M1235.48 145.455C1233.28 145.455 1231.48 143.664 1231.48 141.455V4C1231.48 1.79086 1233.28 0 1235.48 0H1280.56C1290.03 0 1297.91 1.6572 1304.21 4.97159C1310.56 8.28599 1315.31 12.8078 1318.49 18.5369C1321.66 24.2661 1323.25 30.7765 1323.25 38.0682C1323.25 44.1288 1322.23 49.3134 1320.19 53.6222C1318.16 57.9309 1315.39 61.411 1311.88 64.0625C1308.51 66.6127 1304.77 68.484 1300.66 69.6764C1300.37 69.7605 1300.16 70.0247 1300.16 70.3267V70.3267C1300.16 70.6788 1300.44 70.97 1300.79 71.0036C1305.25 71.4328 1309.59 73.0726 1313.8 75.9233C1318.2 78.8589 1321.83 82.9782 1324.67 88.2812C1327.51 93.5843 1328.93 99.929 1328.93 107.315C1328.93 114.654 1327.29 121.212 1324.03 126.989C1320.76 132.718 1315.74 137.24 1308.97 140.554C1302.25 143.821 1293.68 145.455 1283.26 145.455H1235.48ZM1244.77 129.523C1244.77 131.732 1246.56 133.523 1248.77 133.523H1283.26C1294.48 133.523 1302.77 131.037 1308.12 126.065C1313.52 121.094 1316.21 114.844 1316.21 107.315C1316.21 101.776 1314.87 96.7566 1312.17 92.2585C1309.51 87.7131 1305.75 84.1146 1300.87 81.4631C1296.04 78.8116 1290.36 77.4858 1283.83 77.4858H1248.77C1246.56 77.4858 1244.77 79.2767 1244.77 81.4858V129.523ZM1244.77 61.696C1244.77 63.9052 1246.56 65.696 1248.77 65.696H1281.77C1287.5 65.696 1292.52 64.5123 1296.83 62.1449C1301.13 59.7775 1304.5 56.5104 1306.91 52.3438C1309.33 48.1771 1310.53 43.4186 1310.53 38.0682C1310.53 30.3504 1308.02 24.0767 1303 19.2472C1297.99 14.3703 1290.5 11.9318 1280.56 11.9318H1248.77C1246.56 11.9318 1244.77 13.7227 1244.77 15.9318V61.696Z" fill="#086C81"/>
</g>
<defs>
<filter id="filter0_d_1_6" x="931" y="0" width="401.928" height="155.94" filterUnits="userSpaceOnUse" color-interpolation-filters="sRGB">
<feFlood flood-opacity="0" result="BackgroundImageFix"/>
<feColorMatrix in="SourceAlpha" type="matrix" values="0 0 0 0 0 0 0 0 0 0 0 0 0 0 0 0 0 0 127 0" result="hardAlpha"/>
<feOffset dy="4"/>
<feGaussianBlur stdDeviation="2"/>
<feComposite in2="hardAlpha" operator="out"/>
<feColorMatrix type="matrix" values="0 0 0 0 0 0 0 0 0 0 0 0 0 0 0 0 0 0 0.25 0"/>
<feBlend mode="normal" in2="BackgroundImageFix" result="effect1_dropShadow_1_6"/>
<feBlend mode="normal" in="SourceGraphic" in2="effect1_dropShadow_1_6" result="shape"/>
</filter>
</defs>
</svg>
